<?xml version="1.0" encoding="UTF-8"?>
<svg id="Layer_2" data-name="Layer 2" xmlns="http://www.w3.org/2000/svg" viewBox="0 0 69.66 69.69">
  <defs>
    <style>
      .cls-1 {
        fill: #fff;
        strokeWidth: 0px;
      }
    </style>
  </defs>
  <g id="Layer_1-2" data-name="Layer 1">
    <path className="cls-1" d="m32.67,0c1.45,0,2.9,0,4.36,0,.45.06.89.12,1.34.16,7.34.8,13.88,3.51,19.37,8.45,9.19,8.26,13.14,18.63,11.62,30.88-1.19,9.54-5.82,17.28-13.47,23.1-7.61,5.79-16.27,8-25.74,6.77-6.98-.9-13.12-3.75-18.38-8.44C5.74,55.55,1.97,48.88.54,40.92.31,39.63.18,38.32,0,37.02c0-1.45,0-2.9,0-4.36.06-.45.12-.89.16-1.34.81-7.38,3.6-13.91,8.52-19.47C14.1,5.74,20.84,1.93,28.91.53c1.25-.22,2.5-.35,3.76-.53Zm22.61,52.64c.01-.24.03-.43.03-.63,0-4.63.01-9.25,0-13.88,0-.95-.07-1.9-.19-2.85-.61-4.97-3.58-8.1-8.37-8.66-3.47-.4-6.41.64-8.48,3.61-.07.1-.16.19-.37.43v-3.49h-8.45v25.46h8.45v-.84c0-3.4,0-6.8,0-10.21,0-1.34,0-2.68.05-4.01.06-1.54.84-2.72,2.06-3.58,2.44-1.71,5.61-.63,6.43,2.22.27.94.36,1.96.37,2.95.04,4.24.02,8.48.02,12.72v.74h8.45ZM16.28,27.13v25.5h8.45v-.85c0-7.71,0-15.42,0-23.14,0-.29-.03-.59,0-.88.06-.52-.16-.65-.66-.64-2.22.02-4.45.01-6.67.01-.36,0-.72,0-1.13,0Zm-.53-7.89c0,2.59,1.97,4.43,4.73,4.42,2.78,0,4.8-1.85,4.81-4.38,0-2.58-1.97-4.44-4.72-4.45-2.83,0-4.81,1.8-4.82,4.4Z"/>
  </g>
</svg>