<?xml version="1.0" encoding="UTF-8"?>
<svg id="Layer_2" data-name="Layer 2" xmlns="http://www.w3.org/2000/svg" viewBox="0 0 73.14 73.18">
  <defs>
    <style>
      .cls-1 {
        fill: #fff;
        strokeWidth: 0px;
      }
    </style>
  </defs>
  <g id="Layer_1-2" data-name="Layer 1">
    <path className="cls-1" d="m36.59,0c21.26.29,36.56,17.17,36.55,36.6-.02,20.09-15.73,36.7-36.92,36.58C16.44,73.06-.69,57.25.02,35.26.64,16.2,15.65.38,36.59,0Zm-.62,48.33c2.94,2.17,5.82,4.32,8.73,6.44.45.32.99.55,1.51.73.68.23,1.29,0,1.64-.62.28-.51.49-1.07.61-1.64.82-3.8,1.61-7.6,2.42-11.4,1.2-5.66,2.43-11.31,3.62-16.97.18-.85.15-1.72-.58-2.37-.7-.63-1.47-.4-2.22-.11-5.07,1.95-10.13,3.9-15.2,5.85-5.78,2.23-11.57,4.45-17.34,6.69-1.2.46-2.39.96-3.55,1.5-.49.23-.82.67-.77,1.27.05.57.53.74.96.87,2.96.92,5.93,1.79,8.89,2.71.44.14.77.1,1.15-.14,4.51-2.85,9.03-5.69,13.55-8.53,2.31-1.46,4.62-2.92,6.93-4.38.42-.27.86-.52,1.47,0-.74.68-1.44,1.32-2.14,1.97-4.97,4.55-9.94,9.1-14.89,13.66-.17.15-.29.43-.31.65-.19,1.96-.36,3.93-.51,5.9-.08,1.01-.12,2.03-.18,3.05.06.05.13.11.19.16.65-.42,1.36-.76,1.92-1.27,1.41-1.28,2.75-2.64,4.15-4Z"/>
  </g>
</svg>