<?xml version="1.0" encoding="UTF-8"?>
<svg id="Layer_2" data-name="Layer 2" xmlns="http://www.w3.org/2000/svg" viewBox="0 0 65.35 65.36">
  <defs>
    <style>
      .cls-1 {
        fill: #fff;
        strokeWidth: 0px;
      }
    </style>
  </defs>
  <g id="Layer_1-2" data-name="Layer 1">
    <path className="cls-1" d="m32.68,0C14.63,0,0,14.63,0,32.68s14.63,32.68,32.68,32.68,32.67-14.63,32.67-32.68S50.72,0,32.68,0Zm16.97,28.91c-.34.04-.67.05-1.01.05-3.68,0-7.12-1.85-9.14-4.93v16.81c0,6.86-5.56,12.43-12.42,12.43s-12.43-5.57-12.43-12.43,5.56-12.43,12.43-12.43c.25,0,.51.03.76.04v6.13c-.25-.03-.5-.08-.76-.08-3.51,0-6.35,2.84-6.35,6.34s2.84,6.34,6.35,6.34,6.59-2.76,6.59-6.26l.06-28.56h5.86c.56,5.26,4.79,9.36,10.06,9.75v6.8Z"/>
  </g>
</svg>