<?xml version="1.0" encoding="UTF-8"?>
<svg id="Layer_2" data-name="Layer 2" xmlns="http://www.w3.org/2000/svg" viewBox="0 0 71.45 71.58">
  <defs>
    <style>
      .cls-1 {
        fill: #fff;
        strokeWidth: 0px;
      }
    </style>
  </defs>
  <g id="Layer_1-2" data-name="Layer 1">
    <g>
      <path className="cls-1" d="m32.67,0c2.01,0,4.03,0,6.04,0,.24.08.48.21.72.25,15.52,2.15,25.67,10.75,30.57,25.56.74,2.23.98,4.62,1.46,6.94v6.04c-.09.35-.22.71-.26,1.07-2.15,19.98-21,34.44-40.81,31.3C11.37,68.13-1.61,51.41.16,32.22,1.47,18.03,11.44,5.76,25.13,1.64,27.58.9,30.15.54,32.67,0Zm7.22,42.36c6.41,2.41,10.83,1.17,12.77-3.49,1.65-3.96-.11-8.46-4.02-10.29-4.39-2.06-8.24-.26-11.19,5.34-.26-.38-.55-.68-.71-1.04-.94-2.06-1.84-4.15-2.8-6.2-.2-.42-.56-1.01-.91-1.05-1.12-.13-2.27-.05-3.49-.05,0,3.45,0,6.63,0,9.8,0,.58,0,1.18-.16,1.73-.46,1.67-2.21,2.8-3.9,2.61-1.86-.22-3.27-1.72-3.29-3.67-.04-3.43-.01-6.86-.01-10.34h-4.07c0,3.68-.12,7.23.03,10.77.16,3.95,3.3,6.99,7.26,7.34,3.55.31,7.02-2.26,7.95-5.96.23-.92.28-1.89.43-3,.62,1.02,1.03,1.97,1.68,2.7.94,1.05.88,2.12.6,3.36-.71,3.14-1.35,6.29-2.06,9.63.77,0,1.42-.1,2.02.02,1.78.34,2.39-.5,2.63-2.14.29-2.02.81-4.02,1.24-6.04Z"/>
      <path className="cls-1" d="m49.21,35.86c-.03,2.1-1.73,4.01-3.82,3.79-1.49-.16-3.43-.64-4.19-1.69-.56-.77.29-2.78.86-4.08.76-1.75,2.46-2.35,4.24-1.87,1.79.49,2.94,2,2.91,3.85Z"/>
    </g>
  </g>
</svg>