<?xml version="1.0" encoding="UTF-8"?>
<svg id="Layer_2" data-name="Layer 2" xmlns="http://www.w3.org/2000/svg" viewBox="0 0 65.35 65.36">
  <defs>
    <style>
      .cls-1 {
        fill: #fff;
        strokeWidth: 0px;
      }
    </style>
  </defs>
  <g id="Layer_1-2" data-name="Layer 1">
    <g>
      <path className="cls-1" d="m34.16,16.72c-8.39,0-15.22,6.82-15.22,15.22,0,2.77.77,5.5,2.22,7.89l.4.65-1.52,5.67,5.71-1.53.64.39c2.36,1.4,5.05,2.15,7.77,2.15,8.39,0,15.22-6.83,15.22-15.22s-6.83-15.22-15.22-15.22Zm8.94,20.97c-.57,1.37-1.97,2.25-3.4,2.53-1.36.25-2.49-.18-3.75-.6-1.12-.37-2.21-.91-3.22-1.53-2.02-1.24-3.76-2.89-5.17-4.8-.42-.58-.82-1.18-1.19-1.81-.48-.82-.91-1.69-1.14-2.63-.09-.38-.14-.78-.15-1.19-.01-1.41.53-2.83,1.64-3.74.65-.53,1.61-.76,2.33-.35.79.45,1.2,1.57,1.57,2.36.29.62.61,1.43.49,2.12-.11.7-.66,1.28-1.1,1.79-.3.35-.34.65-.09,1.02,1.44,2.41,3.45,4.16,6.07,5.21.36.14.64.09.87-.19.45-.56.9-1.65,1.59-1.94.91-.37,1.92.15,2.69.61.72.43,1.92.96,2.12,1.85.09.42.01.88-.16,1.29Z"/>
      <path className="cls-1" d="m32.67,0C14.63,0,0,14.63,0,32.68s14.63,32.68,32.67,32.68,32.68-14.63,32.68-32.68S50.72,0,32.67,0Zm1.49,50.71c-3.11,0-6.18-.79-8.92-2.28l-10.22,2.74,2.72-10.17c-1.54-2.78-2.35-5.9-2.35-9.06,0-10.35,8.42-18.77,18.77-18.77s18.77,8.42,18.77,18.77-8.42,18.77-18.77,18.77Z"/>
    </g>
  </g>
</svg>