<?xml version="1.0" encoding="UTF-8"?>
<svg id="Layer_2" data-name="Layer 2" xmlns="http://www.w3.org/2000/svg" viewBox="0 0 347.81 275.77">
  <defs>
    <style>
      .cls-1 {
        fill: #e4e8ed;
      }

      .cls-1, .cls-2, .cls-3, .cls-4, .cls-5, .cls-6 {
        stroke-width: 0px;
      }

      .cls-2 {
        stroke: #a7a6aa;
      }

      .cls-2, .cls-4, .cls-5, .cls-6 {
        fill: none;
        stroke-miterlimit: 10;
      }

      .cls-3 {
        fill: #fff;
      }

      .cls-4 {
        stroke: #edeff3;
      }

      .cls-5 {
        stroke: #b6b7be;
      }

      .cls-6 {
        stroke: #adb1b8;
      }
    </style>
  </defs>
  <g id="Layer_1-2" data-name="Layer 1">
    <g>
      <path class="cls-2" d="m228.79,1.38c.13-.57-.23-1.13-.79-1.27l-.32-.08c-.56-.13-1.15.21-1.27.79l-2.66,11.36c-.13.57.23,1.13.79,1.27l.32.08c.56.13,1.15-.21,1.27-.79l2.66-11.36"/>
      <path class="cls-5" d="m253.36,23.06l-.04-.11c-.26-.69-1.04-1.05-1.73-.78l-10.57,4.04c-.69.26-1.04,1.04-.78,1.73l.05.11c.26.69,1.04,1.05,1.73.78l10.57-4.04c.69-.26,1.03-1.04.77-1.73Zm-51.4-9.88l-5.98-9.77c-.39-.62-1.21-.83-1.83-.44l-.08.05c-.63.38-.82,1.2-.43,1.82l5.98,9.77c.39.62,1.21.83,1.83.44l.08-.04c.63-.39.82-1.21.43-1.83Z"/>
      <path class="cls-5" d="m248.22,52.9c8.03,8.46,14.5,19.01,18.19,30.17.16.48.49.72.98.73l13.71.28c.67.01,1.22-.54,1.21-1.19-.04-5.67.55-12.24-1.36-17.25-5.63-14.88-19.12-13.33-32.47-13.4-.34,0-.51.4-.27.66"/>
      <line class="cls-6" x1="344.92" y1="196.79" x2="345.24" y2="164.49"/>
      <path class="cls-4" d="m345.24,164.48l-.32,32.31"/>
      <path class="cls-6" d="m255.97,191.76c-2.29,7.46-.62,13.97,4.98,19.5,10.88,10.78,21.74,21.56,32.62,32.38.37.38.73.38,1.1,0l6.97-7m-38.69-58.51l-12.52-12.6c-.15-.15-.39-.15-.54-.01l-6.99,6.94c-.16.15-.16.39,0,.55l12.51,12.6c.15.15.39.15.55,0l6.99-6.94c.15-.15.15-.38,0-.54Z"/>
      <path class="cls-5" d="m301.64,236.65l19-18.86c.39-.37.39-1,0-1.37-10.34-10.09-20.59-20.32-30.75-30.71-12.01-12.24-25.79-9.54-33.92,6.06"/>
      <path class="cls-5" d="m88.11,44.32H24.18c-.44,0-.8.35-.8.8v1.58c0,.45.36.81.8.81h63.93c.45,0,.8-.36.8-.81v-1.58c0-.45-.35-.8-.8-.8Z"/>
      <path class="cls-5" d="m294.27,196.5c-1-.91-2.24-1.14-2.76-.56-.54.58-.15,1.79.85,2.69,1,.9,2.24,1.14,2.76.56.54-.58.15-1.79-.85-2.69Zm-4.01-3.58c-7.05-9.16-17.58-13.05-27.07-5.19-.63.51-.9,1.33-.7,2.12l.09.37c.22.85.65,1,1.32.42,8.39-7.31,16.94-4.67,23.49,2.82.49.58,1.28.84,2.03.67l.45-.1c.49-.11.7-.7.39-1.11Zm-102.07-77.52h-1.88m24.01-20.44c-3.97,0-7.19,3.22-7.19,7.19s3.22,7.2,7.19,7.2,7.19-3.23,7.19-7.2-3.22-7.19-7.19-7.19Zm-45.97-.13c-4.02,0-7.27,3.25-7.27,7.26s3.25,7.27,7.27,7.27,7.26-3.25,7.26-7.27-3.25-7.26-7.26-7.26Z"/>
      <path class="cls-3" d="m226.13,12.74c-.13.58-.71.92-1.27.79l-.32-.08c-.56-.14-.92-.71-.79-1.27l2.66-11.36c.13-.58.71-.92,1.27-.79l.32.08c.56.14.92.71.79,1.27l-2.66,11.36h0Z"/>
      <path class="cls-3" d="m201.96,13.18c.39.62.19,1.44-.44,1.83l-.08.05c-.62.39-1.44.18-1.83-.44l-5.99-9.77c-.39-.62-.19-1.44.44-1.83l.08-.05c.62-.39,1.44-.18,1.83.44l5.99,9.77h0Z"/>
      <path class="cls-3" d="m253.36,23.06c.26.69-.08,1.47-.78,1.73l-10.57,4.04c-.69.27-1.47-.09-1.73-.78l-.04-.11c-.26-.69.08-1.47.78-1.73l10.57-4.04c.69-.27,1.47.09,1.73.78l.04.11h0Z"/>
      <path class="cls-3" d="m347.48,114.81c-.03-8.34-.7-14.1-2.01-17.28-3.15-7.6-10.66-12.88-19.31-13.33-13.58-.7-27.11-.43-40.65-.34-.46,0-.82-.39-.77-.84.37-4.91.25-9.89-.36-14.95-1.14-9.31-11.28-18.13-21.18-18.32-7.38-.15-13.04-.17-16.96-.03-.5.01-.96-.14-1.36-.43-1.87-1.39-3.87-3.68-5.19-4.71-15.78-12.31-33.16-18.45-52.19-18.44-21.36.02-40.45,7.45-57.27,22.29-.65.59-2.34.94-5.06,1.05-6.99.28-14.04.34-21.12.18-.5-.02-.78-.27-.83-.76-.74-7.4.75-13.58-6.47-18.01-2.3-1.41-6.1-2.09-11.42-2.06-22.42.13-44.84.13-67.26-.02-6.94-.04-12.37.75-15.91,6.52C.74,37.65.04,41.39.02,46.6-.03,111.67.01,176.76.17,241.85c.02,9.84,4.79,18.74,14.31,26.76,3.53,2.49,7.64,4.38,12.34,5.67,3.29.89,7.73,1.34,13.34,1.36,103.35.25,194.5.12,273.42-.39,8.09-.05,15.4-2.93,21.92-8.64,8.22-7.15,12.33-17.01,12.31-29.61-.04-40.73-.16-81.47-.33-122.19Zm-98.99-62.57c13.35.07,26.84-1.48,32.47,13.4,1.91,5.01,1.31,11.58,1.36,17.25,0,.66-.54,1.21-1.21,1.19l-13.71-.28c-.5-.02-.82-.25-.99-.73-3.68-11.16-10.16-21.71-18.19-30.17-.24-.26-.07-.66.27-.66Zm-61.15-23.01c44.59,0,80.73,36.14,80.73,80.73s-36.14,80.73-80.73,80.73-80.73-36.15-80.73-80.73S142.75,29.23,187.34,29.23Zm133.3,188.55l-19,18.86-6.97,7c-.37.38-.73.38-1.1,0-10.88-10.82-21.74-21.6-32.62-32.38-5.6-5.53-7.27-12.04-4.98-19.5,8.13-15.59,21.9-18.29,33.91-6.06,10.17,10.39,20.42,20.62,30.76,30.71.39.37.39,1,0,1.37Zm2.25,1.78c.36-.36.72-.36,1.06.01,7,7.39,7.77,15.84,2.31,25.31-9.11,10.07-18.98,10.69-29.6,1.84-.17-.14-.35-.26-.57-.36-.37-.17-.4-.39-.1-.67l7.67-6.97,19.23-19.16Zm-59.94-40.89l-6.99,6.94c-.16.15-.4.15-.55,0l-12.51-12.6c-.16-.16-.16-.4,0-.55l6.99-6.94c.15-.14.39-.14.54.01l12.52,12.6c.15.16.15.39,0,.54ZM13.25,263.43c-7.94-7.7-9.81-15.83-9.85-27.56-.3-63.36.18-126.78.1-190.14,0-9.08,2.36-13.37,11.7-13.55,23.35-.43,46.71-.53,70.07-.28,15.4.17,15.06,6.98,14.93,19.35-.02.6.46,1.08,1.06,1.08h24.32c.64.01.76.27.36.78-7.75,9.43-13.64,17.92-17.46,29.64-.21.68-.85,1.14-1.57,1.14-15.55-.05-31.28-2.96-39.65,14.06-.82,3.43-1.21,6.25-1.19,8.47.51,69.52.43,114.05-.22,133.55-.54,16.1-8.57,26.5-24.07,31.2-11.21,2.42-20.73-.16-28.53-7.74Zm331.99-98.95l-.32,32.31c.13,14.43.17,28.89.16,43.38-.03,13.43-8.89,25.56-21.11,30.23-3.65,1.39-9.17,2.07-16.58,2.07-85.74-.04-171.49-.04-257.21,0-.54,0-.61-.19-.24-.58.79-.82,2.27-1.98,4.45-3.46,12.35-8.43,14.29-21.95,14.16-37.04-.38-39.63-.38-79.26-.03-118.9.04-6.16.64-10.61,1.77-13.37,6.21-15.17,22.97-12.63,36.08-12.53.56.01.75.28.57.81-2.37,7.31-3.64,14.63-3.79,21.99,2.24,51.72,43.35,89.46,95.52,83.52,7.04-.79,16.44-3.51,23.59-6.72,7.91-3.53,11.7-7.2,17.66-11.04.48-.31.91-.27,1.32.14l12.7,12.53c.37.37.44.79.25,1.27-3.63,8.79-2.15,16.46,4.42,23.04,9.59,9.62,19.2,19.26,28.8,28.9,7.04,7.07,10.68,10.7,10.92,10.87,5.51,3.92,13.68,5.4,20.26,2.23,1.44-.67,2.9-1.28,4.38-1.83,8.55-6.36,12.95-17.77,8.32-27.59-1.12-2.35-3.67-5.48-7.65-9.37-9.99-9.75-19.91-19.55-29.77-29.41-8.84-8.85-15.36-13.49-27.31-9.14-.48.18-1.01.05-1.37-.31l-12.7-12.77c-.31-.32-.34-.66-.06-1,16.65-21.51,22.65-48.96,15.2-75.37-.16-.59.05-.88.66-.87,15.45.16,31.01.21,46.68.1,9.05-.05,15.25.66,18.57,2.14,10.58,4.71,11.94,14.28,11.91,25.78-.03,16.7-.1,33.37-.21,49.99Z"/>
      <path class="cls-3" d="m88.91,46.71c0,.45-.36.81-.81.81H24.18c-.45,0-.81-.36-.81-.81v-1.58c0-.45.36-.81.81-.81h63.93c.45,0,.81.36.81.81v1.58h0Z"/>
      <path class="cls-3" d="m187.29,46.39c-35.11,0-63.58,28.47-63.58,63.58s28.47,63.58,63.58,63.58,63.59-28.47,63.59-63.58-28.47-63.58-63.59-63.58Zm-39.05,17.35c22.66-19.51,55.9-18.81,78.52.11.38.31.33.43-.16.34-1.48-.28-2.9-.62-4.4-.62-23.13,0-46.26.06-69.4.1-1.53,0-3.09.42-4.44.4-.34,0-.37-.1-.12-.33Zm89.82,79.48c-11.03,16.14-25.96,25.22-44.81,27.23-41.53,4.43-75.06-34.98-64.31-75.56,2.11-9.87,7.75-21.21,15.95-27.7.43-.34.91-.51,1.46-.51l82.97-.1c.41,0,.77.15,1.05.43,3.62,3.54,6.53,7.18,8.75,10.93,10.53,17.8,11.85,36.32,3.92,55.58-1.86,4.34-3.52,7.56-4.98,9.7Z"/>
      <path class="cls-3" d="m171.61,102.09c0,4.02-3.25,7.27-7.26,7.27s-7.27-3.25-7.27-7.27,3.25-7.26,7.27-7.26,7.26,3.25,7.26,7.26Z"/>
      <path class="cls-3" d="m217.51,102.15c0,3.97-3.22,7.2-7.19,7.2s-7.19-3.23-7.19-7.2,3.22-7.19,7.19-7.19,7.19,3.22,7.19,7.19Z"/>
      <path class="cls-3" d="m188.19,115.4h-1.88c-12.53.05-22.67,10.39-22.62,23.12v.19c0,1.93,1.58,3.48,3.51,3.48l12.99-.05c-.92-1.36-1.46-3.01-1.46-4.78,0-4.7,3.81-8.52,8.52-8.52s8.52,3.82,8.52,8.52c0,1.75-.52,3.38-1.42,4.73l13.13-.05c1.93,0,3.5-1.57,3.48-3.51v-.19c-.04-12.71-10.24-22.98-22.77-22.94Zm17.8,23.48l-4.76.47c-1.59.17-2.36-.56-2.3-2.16.62-15.19-22.11-16.8-23.23-.48-.13,1.87-1.13,2.73-3,2.58l-3.71-.29c-1.51-.11-2.59-1.53-2.27-3.02,4.91-23.66,36.74-23.52,41.32.17.31,1.65-.36,2.56-2.05,2.73Z"/>
      <polygon class="cls-1" points="345.24 164.49 344.92 196.79 345.24 164.49 345.24 164.49"/>
      <path class="cls-3" d="m287.39,193.46c-6.55-7.49-15.1-10.13-23.49-2.82-.67.58-1.1.43-1.33-.42l-.09-.37c-.19-.79.07-1.61.7-2.12,9.49-7.86,20.03-3.97,27.07,5.19.31.4.1,1-.39,1.1l-.45.1c-.75.16-1.54-.09-2.03-.67h0Z"/>
      <path class="cls-3" d="m295.12,199.2c-.52.58-1.76.34-2.77-.56-1-.9-1.38-2.11-.85-2.69.52-.58,1.76-.34,2.77.56,1,.9,1.38,2.11.85,2.69h0Z"/>
    </g>
  </g>
</svg>