<?xml version="1.0" encoding="UTF-8"?>
<svg id="Layer_1" data-name="Layer 1" xmlns="http://www.w3.org/2000/svg" xmlns:xlink="http://www.w3.org/1999/xlink" viewBox="0 0 498.38 539.96">
  <defs>
    <style>
      .cls-1 {
        fill: url(#linear-gradient);
        strokeWidth: 0px;
      }
    </style>
    <linearGradient id="linear-gradient" x1="15.24" y1="271.61" x2="483.14" y2="271.61" gradientTransform="translate(0 542) scale(1 -1)" gradientUnits="userSpaceOnUse">
      <stop offset="0" stop-color="#f8a746"/>
      <stop offset="1" stop-color="#f7941d"/>
    </linearGradient>
  </defs>
  <path class="cls-1" d="m483.14,69.53l-38.56,30.2-2.87-9.57L62.52,15.26l420.62,54.27h0Zm-221.28,228.09c-.88,9.96-9.05,17.94-19.03,18.56-.51.03-.94.05-1.32.05-11.27,0-20.44-9.17-20.44-20.44,0-.65.04-1.33.1-2.03.97-9.91,8.87-17.62,18.8-18.34l4.74-.34,170.32-166.17-269.61,68.74h0L15.24,210.84v54.05l26-5.05v-28.8l81.81-20.86v130.1c0,20.91-17.01,37.92-37.92,37.92h-43.88v-47.08l57.09-10.99v-26.48l-83.09,15.99v94.57l69.89-.02c35.25,0,63.92-28.67,63.92-63.92v-136.72l178.36-45.47-94.34,92.04c-20.19,3.68-35.73,20.25-37.76,41.1-.15,1.54-.23,3.07-.23,4.56,0,25.61,20.83,46.44,46.44,46.44.93,0,1.91-.03,2.96-.1,20.95-1.31,38.42-16.9,42.54-37.12l96.22-93.88-46.04,180.58h-136.74c-35.25,0-63.92,28.67-63.92,63.92v69.89h193.37l21.19-83.04h-26.83l-14.55,57.04h-147.17v-43.89c0-20.91,17.01-37.92,37.92-37.92h156.94l73.88-289.78-169,164.89-.42,4.8h-.02Z"/>
</svg>